<?xml version="1.0" encoding="UTF-8" standalone="no"?>
<svg width="200px" height="200px" viewBox="0 0 200 200" version="1.1" xmlns="http://www.w3.org/2000/svg" xmlns:xlink="http://www.w3.org/1999/xlink" xmlns:sketch="http://www.bohemiancoding.com/sketch/ns">
    <title>DOTAKUN</title>
    <description>Created with Sketch (http://www.bohemiancoding.com/sketch)</description>
    <defs>
        <path d="M66.5409483,42.2812239 C66.5409483,42.2812239 47.5087975,56.181287 28.6637931,56.181287 C9.81878873,56.181287 0,53.523922 0,53.523922 L5.73275862,31.2429386 C5.73275862,31.2429386 28.1663374,39.6326428 45.6573276,31.0385259 C63.1483196,22.4444095 63.3202954,19.0725726 63.3202954,19.0725726 C63.3202954,19.0725726 59.5477693,14.1110609 62.2273208,11.0768584 C64.9068722,8.04265579 68.0646245,9.15606884 68.0646245,9.15606884 C68.0646245,9.15606884 66.0967192,5.50309944 70.4243239,2.78088077 C74.7519284,0.0586620709 78.825431,5.50309963 78.825431,5.50309963 C78.825431,5.50309963 85.4915224,7.10973501e-07 91.9504731,0 C98.4094238,-5.96428433e-07 103.060473,4.76425599 103.060473,4.76425599 C103.060473,4.76425599 108.878376,0.514379291 112.425761,3.48944194 C115.973145,6.46450459 113.915684,10.1067777 113.915684,10.1067777 C113.915684,10.1067777 116.990679,8.61924614 120.088067,12.4444343 C123.185455,16.2696225 118.014248,21.1569046 118.014248,21.1569046 C118.014248,21.1569046 126.375017,31.0385264 141.06681,35.5356067 C155.758604,40.0326868 186.109914,32.4694147 186.109914,32.4694147 L190,56.9989377 C190,56.9989377 155.660232,57.1410707 141.06681,54.13716 C126.473389,51.1332494 106.413532,36.0979125 106.413532,36.0979125 C106.413532,36.0979125 106.413532,17.5472877 93.0317635,16.8308186 C79.6499948,16.1143498 77.1611077,31.3251819 78.825431,35.5356051 C80.4897545,39.7460283 78.2112069,40.0326843 78.2112069,40.0326843 L66.5409483,42.2812239 Z M66.5409483,42.2812239" id="path-1" stroke="none" fill-rule="evenodd" sketch:type="MSShapeGroup"></path>
        <mask id="mask-2" fill="white">
            <use xlink:href="#path-1"></use>
        </mask>
        <path d="M26.9927149,6.87342794 C26.9927149,6.87342794 24.580044,30.4516552 19.3928399,45.9292288 C14.2056363,61.4068026 0,71.1128991 0,71.1128991 C0,71.1128991 6.46775636,73.3585403 29.5963461,83.1521394 C36.0406855,85.88094 39.1865923,82.876688 44.3949203,83.1521394 C57.8791647,83.8652771 68.1011003,91.2199893 83.5432631,86.3370643 C104.950006,79.5680972 113,80.7133558 113,80.7133558 C113,80.7133558 99.8390253,66.3707753 97.1399145,54.4725885 C94.4408035,42.5744017 87.3809111,9.74579096 87.3809111,9.74579096 C87.3809111,9.74579096 68.8514017,-2.03378249 52.8733704,0.308026753 C36.8953393,2.64983611 26.9927149,6.87342794 26.9927149,6.87342794 Z M26.9927149,6.87342794" id="path-3" stroke="none" fill-rule="evenodd" sketch:type="MSShapeGroup"></path>
        <mask id="mask-4" fill="white">
            <use xlink:href="#path-3"></use>
        </mask>
    </defs>
    <g id="Page-1" stroke="none" stroke-width="1" fill="none" fill-rule="evenodd" sketch:type="MSPage">
        <g id="DOTAKUN" sketch:type="MSArtboardGroup">
            <g id="どうたく" sketch:type="MSLayerGroup" transform="translate(5.000000, 44.000000)">
                <g id="あたま">
                    <path d="M67.0409483,42.2812239 C67.0409483,42.2812239 48.0087975,56.181287 29.1637931,56.181287 C10.3187887,56.181287 0.5,53.523922 0.5,53.523922 L6.23275862,31.2429386 C6.23275862,31.2429386 28.6663374,39.6326428 46.1573276,31.0385259 C63.6483196,22.4444095 63.8202954,19.0725726 63.8202954,19.0725726 C63.8202954,19.0725726 60.0477693,14.1110609 62.7273208,11.0768584 C65.4068722,8.04265579 68.5646245,9.15606884 68.5646245,9.15606884 C68.5646245,9.15606884 66.5967192,5.50309944 70.9243239,2.78088077 C75.2519284,0.0586620709 79.325431,5.50309963 79.325431,5.50309963 C79.325431,5.50309963 85.9915224,7.10973501e-07 92.4504731,0 C98.9094238,-5.96428433e-07 103.560473,4.76425599 103.560473,4.76425599 C103.560473,4.76425599 109.378376,0.514379291 112.925761,3.48944194 C116.473145,6.46450459 114.415684,10.1067777 114.415684,10.1067777 C114.415684,10.1067777 117.490679,8.61924614 120.588067,12.4444343 C123.685455,16.2696225 118.514248,21.1569046 118.514248,21.1569046 C118.514248,21.1569046 126.875017,31.0385264 141.56681,35.5356067 C156.258604,40.0326868 186.609914,32.4694147 186.609914,32.4694147 L190.5,56.9989377 C190.5,56.9989377 156.160232,57.1410707 141.56681,54.13716 C126.973389,51.1332494 106.913532,36.0979125 106.913532,36.0979125 C106.913532,36.0979125 106.913532,17.5472877 93.5317635,16.8308186 C80.1499948,16.1143498 77.6611077,31.3251819 79.325431,35.5356051 C80.9897545,39.7460283 78.7112069,40.0326843 78.7112069,40.0326843 L67.0409483,42.2812239 Z M67.0409483,42.2812239" id="Path-16" fill="#66B5AC" sketch:type="MSShapeGroup"></path>
                    <g id="ひれますく" transform="translate(0.500000, 0.000000)">
                        <use id="Path-8" xlink:href="#path-1" fill="#66B5AC"></use>
                        <path d="M3.74627534,30 L-3.40885448,54.239584 L8.62506676,56.5984154 L12,32.3188468 L3.74627534,30 Z M3.74627534,30" id="Path-4" fill="#31585A" sketch:type="MSShapeGroup" mask="url(#mask-2)"></path>
                        <path d="M186.202697,32 L178,33.7431518 L180.116088,57 L190,57 L186.202697,32 Z M186.202697,32" id="Path-5" fill="#31585A" sketch:type="MSShapeGroup" mask="url(#mask-2)"></path>
                        <path d="M33.6691895,33.3834229 C32.3729253,33.6402446 31,33.708374 31,33.708374 C31,33.708374 31.5513802,42.0269008 32.2441175,45.6879635 C32.9979195,49.671748 34.5858158,52.6591311 35.3396177,56.6429157 C35.3396178,56.642916 42.5575981,55.6618195 42.5575981,55.6618195 C41.5509009,51.8630058 40.1063338,48.9494676 39.0159616,44.7230692 C37.9255896,40.4966707 37.6843696,36.3622121 37.3340573,32.5078555 C37.3340573,32.5078554 35.0871757,33.1024852 33.6691895,33.3834229 Z M33.6691895,33.3834229" id="Path-6" fill="#31585A" sketch:type="MSShapeGroup" mask="url(#mask-2)"></path>
                        <path d="M42.2687988,31.4711914 C41.416673,31.7841493 39.612915,32.3532715 39.612915,32.3532715 C39.612915,32.3532715 40.6034327,39.9562754 41.5925351,43.8860941 C42.5283124,47.6040454 45.3875542,55.2965813 45.3875542,55.2965813 C45.3875542,55.2965813 48.8377677,54.7002486 49.9775476,54.2576218 C50.8951742,53.9012669 51.8359909,52.3061199 51.8359909,52.3061199 C51.8359909,52.3061199 49.1290762,45.6903211 48.0452099,42.2500753 C46.81428,38.3430416 44.8916016,30.2642822 44.8916016,30.2642822 C44.8916016,30.2642822 43.1920813,31.1321002 42.2687988,31.4711914 Z M42.2687988,31.4711914" id="Path-7" fill="#31585A" sketch:type="MSShapeGroup" mask="url(#mask-2)"></path>
                        <path d="M139.509849,31.2093586 C138.701551,30.8405302 137.12263,30 137.12263,30 C137.12263,30 136.020364,37.5148457 135.235453,41.2070292 C134.31282,45.5470538 132,54.0966243 132,54.0966243 C132,54.0966243 133.961118,55.2588905 134.922331,55.7414738 C135.888774,56.2266825 137.782968,57 137.782968,57 C137.782968,57 139.905329,47.9835107 140.668499,43.5 C141.311007,39.7253626 142,32.2255558 142,32.2255558 C142,32.2255558 140.327341,31.5823823 139.509849,31.2093586 Z M139.509849,31.2093586" id="Path" fill="#31585A" sketch:type="MSShapeGroup" mask="url(#mask-2)"></path>
                        <path d="M148.440574,26.8779966 C147.608251,26.6104432 145.721966,26 145.721966,26 C145.721966,26 145.115007,35.8887068 144.52729,41.0295033 C143.874352,46.7407862 142,58.5562385 142,58.5562385 C142,58.5562385 144.310278,59.4651058 145.451002,59.8413305 C146.78013,60.279693 149.409554,61 149.409554,61 C149.409554,61 150.394014,49.3314109 150.739072,42.8306184 C151.08413,36.3298258 150.729024,32.9762494 151,27.2210851 C151,27.2210852 149.272898,27.14555 148.440574,26.8779966 Z M148.440574,26.8779966" id="Path" fill="#31585A" sketch:type="MSShapeGroup" mask="url(#mask-2)"></path>
                    </g>
                    <circle d="M116,21 C119.313709,21 122,18.3137087 122,15 C122,11.6862913 119.313709,9 116,9 C112.686291,9 110,11.6862913 110,15 C110,18.3137087 112.686291,21 116,21 Z M116,21" id="あたまのまるいの" fill="#66B5AC" sketch:type="MSShapeGroup" cx="116" cy="15" r="6"></circle>
                    <circle d="M109,14 C112.313709,14 115,11.3137087 115,8 C115,4.68629134 112.313709,2 109,2 C105.686291,2 103,4.68629134 103,8 C103,11.3137087 105.686291,14 109,14 Z M109,14" id="あたまのまるいの" fill="#66B5AC" sketch:type="MSShapeGroup" cx="109" cy="8" r="6"></circle>
                    <circle d="M67,21 C70.3137087,21 73,18.3137087 73,15 C73,11.6862913 70.3137087,9 67,9 C63.6862913,9 61,11.6862913 61,15 C61,18.3137087 63.6862913,21 67,21 Z M67,21" id="あたまのまるいの" fill="#66B5AC" sketch:type="MSShapeGroup" cx="67" cy="15" r="6"></circle>
                    <circle d="M74,14 C77.3137087,14 80,11.3137087 80,8 C80,4.68629134 77.3137087,2 74,2 C70.6862913,2 68,4.68629134 68,8 C68,11.3137087 70.6862913,14 74,14 Z M74,14" id="あたまのまるいの" fill="#66B5AC" sketch:type="MSShapeGroup" cx="74" cy="8" r="6"></circle>
                    <path d="M67,19 C69.2091391,19 71,17.2091391 71,15 C71,12.7908609 69.2091391,11 67,11 C64.7908609,11 63,12.7908609 63,15 C63,17.2091391 64.7908609,19 67,19 Z M74,12 C76.2091391,12 78,10.2091391 78,8 C78,5.79086089 76.2091391,4 74,4 C71.7908609,4 70,5.79086089 70,8 C70,10.2091391 71.7908609,12 74,12 Z M109,12 C111.209139,12 113,10.2091391 113,8 C113,5.79086089 111.209139,4 109,4 C106.790861,4 105,5.79086089 105,8 C105,10.2091391 106.790861,12 109,12 Z M116,19 C118.209139,19 120,17.2091391 120,15 C120,12.7908609 118.209139,11 116,11 C113.790861,11 112,12.7908609 112,15 C112,17.2091391 113.790861,19 116,19 Z M116,19" id="あたまのまるいの" fill="#31585A" sketch:type="MSShapeGroup"></path>
                    <path d="M73.3251358,32.9998585 C73.3251358,32.9998585 81.7973833,30.615638 81.7973834,30.615638 C81.7973836,30.615638 82.7920468,23.4437505 87.1097876,21.7386435 C91.427528,20.0335364 95.1692987,19.7449392 97.6593908,22.3924142 C100.149483,25.0398892 102.332731,30.6156386 102.332731,30.6156386 L112.99166,32.4912855 C112.99166,32.4912855 113.406301,31.1917677 108.38839,22.3924144 C103.370477,13.5930613 93.9956448,11.4408184 90.2187041,12.1147212 C86.4417633,12.788624 80.0449088,16.1833092 75.8540665,24.661317 C71.6632234,33.1393246 73.3251358,32.9998585 73.3251358,32.9998585 Z M73.3251358,32.9998585" id="Path-10" fill="#31585A" sketch:type="MSShapeGroup"></path>
                </g>
                <g id="胴体" transform="translate(37.000000, 28.000000)">
                    <path d="M26.9927149,6.87342794 C26.9927149,6.87342794 24.580044,30.4516552 19.3928399,45.9292288 C14.2056363,61.4068026 0,71.1128991 0,71.1128991 C0,71.1128991 6.46775636,73.3585403 29.5963461,83.1521394 C36.0406855,85.88094 39.1865923,82.876688 44.3949203,83.1521394 C57.8791647,83.8652771 68.1011003,91.2199893 83.5432631,86.3370643 C104.950006,79.5680972 113,80.7133558 113,80.7133558 C113,80.7133558 99.8390253,66.3707753 97.1399145,54.4725885 C94.4408035,42.5744017 87.3809111,9.74579096 87.3809111,9.74579096 C87.3809111,9.74579096 68.8514017,-2.03378249 52.8733704,0.308026753 C36.8953393,2.64983611 26.9927149,6.87342794 26.9927149,6.87342794 Z M26.9927149,6.87342794" id="Path-1" fill="#79C0BA" sketch:type="MSShapeGroup"></path>
                    <use id="Path-1" xlink:href="#path-3" fill="#79C0BA"></use>
                    <path d="M14.8613281,43.822916 C14.8613281,43.822916 22.9126096,38.6235189 30.3351021,37.3860675 C37.7575947,36.1486167 41.8063098,36.3589558 41.8063098,36.3589558 L43,22.0254355 C43,22.0254355 36.7160443,22.2295804 30.3351021,23.2740885 C23.9541598,24.3185962 17.9557292,26.9876304 17.9557292,26.9876304 L14.8613281,43.822916 Z M14.8613281,43.822916" id="Path-11" fill="#31585A" sketch:type="MSShapeGroup" mask="url(#mask-4)"></path>
                    <path d="M100.809246,46.6699219 C100.646547,46.6699219 87.285623,39.7619795 81.071373,38.6236973 C74.857123,37.485415 64,36.38447 64,36.38447 L64.4587356,22 C64.4587356,22 76.2635548,23.3100202 81.0713736,24.8653341 C88.4797561,27.2619219 94.7418893,29.3394335 95.8574219,29.7109375 C95.8574219,29.7109375 100.971945,46.6699219 100.809246,46.6699219 Z M100.809246,46.6699219" id="Path-12" fill="#31585A" sketch:type="MSShapeGroup" mask="url(#mask-4)"></path>
                    <path d="M16.9609373,21.0147327 C16.9609373,21.0147327 49.1419819,10.8892129 64.210285,15.2656246 C79.2785877,19.6420379 97.6712263,24.7975257 97.6712263,24.7975257 L93.9199217,5.88882764 C93.9199217,5.88882764 70.974295,-7.18261066 55.2975271,-6.39778642 C39.6207595,-5.61296167 16.9609373,1.27734352 16.9609373,1.27734352 L16.9609373,21.0147327 Z M16.9609373,21.0147327" id="Path-14" fill="#D4EBDE" sketch:type="MSShapeGroup" mask="url(#mask-4)"></path>
                </g>
                <path d="M100.518383,82.8319668 C99.6400435,82.4714111 92.0402858,81 88.5111,81 C84.5961719,81 72.8916846,82.8319667 72.8916846,82.8319667 L68,97.6024978 L107,100 C107,100 100.614386,82.8713758 100.518383,82.8319668 Z M100.518383,82.8319668" id="くち" fill="#D8D8D8" sketch:type="MSShapeGroup"></path>
                <ellipse d="M92.5,123 C124.808659,123 151,116.060414 151,107.5 C151,98.939586 124.808659,92 92.5,92 C60.1913405,92 34,98.939586 34,107.5 C34,116.060414 60.1913405,123 92.5,123 Z M92.5,123" id="Oval-9" fill="#31585A" sketch:type="MSShapeGroup" transform="translate(92.500000, 107.500000) rotate(-356.000000) translate(-92.500000, -107.500000) " cx="92.5" cy="107.5" rx="58.5" ry="15.5"></ellipse>
                <ellipse d="M93,119 C117.30053,119 137,114.970563 137,110 C137,105.029437 117.30053,101 93,101 C68.6994698,101 49,105.029437 49,110 C49,114.970563 68.6994698,119 93,119 Z M93,119" id="Oval-9" fill="#313939" sketch:type="MSShapeGroup" transform="translate(93.000000, 110.000000) rotate(-356.000000) translate(-93.000000, -110.000000) " cx="93" cy="110" rx="44" ry="9"></ellipse>
                <g id="Path-+-Oval" transform="translate(57.000000, 71.000000)" fill="#FFFFFF" sketch:type="MSShapeGroup">
                    <circle d="M12,24 C18.6274173,24 24,18.6274173 24,12 C24,5.37258267 18.6274173,0 12,0 C5.37258267,0 0,5.37258267 0,12 C0,18.6274173 5.37258267,24 12,24 Z M12,24" id="Path" cx="12" cy="12" r="12"></circle>
                </g>
                <g id="me-+-Oval" transform="translate(98.000000, 70.000000)" fill="#FFFFFF" sketch:type="MSShapeGroup">
                    <circle d="M12.5,25 C19.4035597,25 25,19.4035597 25,12.5 C25,5.59644029 19.4035597,0 12.5,0 C5.59644029,0 0,5.59644029 0,12.5 C0,19.4035597 5.59644029,25 12.5,25 Z M12.5,25" id="me" cx="12.5" cy="12.5" r="12.5"></circle>
                </g>
                <g id="Path-+-Oval" transform="translate(62.000000, 77.000000)" fill="#E23328" sketch:type="MSShapeGroup">
                    <circle d="M5.5,11 C8.53756627,11 11,8.53756627 11,5.5 C11,2.46243373 8.53756627,0 5.5,0 C2.46243373,0 0,2.46243373 0,5.5 C0,8.53756627 2.46243373,11 5.5,11 Z M5.5,11" id="Path" cx="5.5" cy="5.5" r="5.5"></circle>
                </g>
                <g id="Path-+-Oval" transform="translate(105.000000, 77.000000)" fill="#E23328" sketch:type="MSShapeGroup">
                    <circle d="M5.5,11 C8.53756627,11 11,8.53756627 11,5.5 C11,2.46243373 8.53756627,0 5.5,0 C2.46243373,0 0,2.46243373 0,5.5 C0,8.53756627 2.46243373,11 5.5,11 Z M5.5,11" id="Path" cx="5.5" cy="5.5" r="5.5"></circle>
                </g>
            </g>
        </g>
    </g>
</svg>